<?xml version="1.0" standalone="no"?>
<!DOCTYPE svg PUBLIC "-//W3C//DTD SVG 20010904//EN"
 "http://www.w3.org/TR/2001/REC-SVG-20010904/DTD/svg10.dtd">
<svg version="1.0" xmlns="http://www.w3.org/2000/svg"
 width="260.000000pt" height="260.000000pt" viewBox="0 0 260.000000 260.000000"
 preserveAspectRatio="xMidYMid meet">
<metadata>
Created by potrace 1.11, written by Peter Selinger 2001-2013
</metadata>
<g transform="translate(0.000000,260.000000) scale(0.100000,-0.100000)"
fill="#000000" stroke="none">
<path d="M0 1300 l0 -1300 1300 0 1300 0 0 1300 0 1300 -1300 0 -1300 0 0
-1300z m1779 799 l95 -131 23 28 c13 16 56 75 95 131 l73 102 78 1 c42 0 77
-3 77 -7 0 -5 -51 -91 -113 -193 l-113 -185 -120 -3 -119 -2 -95 157 c-52 86
-105 174 -118 195 l-23 38 83 0 83 0 94 -131z m-1399 -1134 l0 -685 390 0 390
0 0 -90 0 -90 -490 0 -490 0 0 775 0 775 100 0 100 0 0 -685z m2090 597 l0
-87 -479 -595 -480 -595 490 -3 489 -2 0 -90 0 -90 -605 0 -605 0 0 94 0 94
473 588 474 589 -454 3 -453 2 0 90 0 90 575 0 575 0 0 -88z"/>
</g>
</svg>
